# xmcd
#
# Track frame offsets:
# 150
# 17961
# 28618
# 48595
# 62007
# 76398
# 94814
# 128429
#
# Disc length: 1943 seconds
#
#
# Revision: 0
# Processed by: cddbd v1.5.2PL0 Copyright (c) Steve Scherf et al.
# Submitted via: FreeRIP 2.941 
#
DISCID=5f079508
DTITLE=Tom Walbank - Jaguar Blues
DYEAR=2003
DGENRE=Blues
TTITLE0=Tamp it down solid
TTITLE1=Whirlwind Mama
TTITLE2=Rollin' Stone
TTITLE3=Jaguar blues
TTITLE4=Sweetest cherry pie
TTITLE5=You got trouble
TTITLE6=Time (lickin' at my door)
TTITLE7=Howlin' Tomcat
EXTD=
EXTT0=
EXTT1=
EXTT2=
EXTT3=
EXTT4=
EXTT5=
EXTT6=
EXTT7=
PLAYORDER=
